<?xml version="1.0" standalone="no"?>
<!DOCTYPE svg PUBLIC "-//W3C//DTD SVG 1.1//EN" "http://www.w3.org/Graphics/SVG/1.1/DTD/svg11.dtd" >
<!--
2013-9-30: Created.
-->
<svg>
<metadata>
Created by iconfont
</metadata>
<defs>

<font id="iconfont" horiz-adv-x="1024" >
  <font-face
    font-family="iconfont"
    font-weight="500"
    font-stretch="normal"
    units-per-em="1024"
    ascent="896"
    descent="-128"
  />
    <missing-glyph />
    
    <glyph glyph-name="xuanze" unicode="&#58886;" d="M187.5 708.4l693.1-230.7L696 380.6l-76.9-40.5 61.5-61.4L885 74.6l-63.4-63.6-204.2 204.5-61.5 61.6-40.5-77-96.8-184.3L187.5 708.4M155.9 784.1c-4.5 0-9.2-0.7-13.9-2.1-23-7.4-35.4-32-28-55.6l258.4-774.5c3.1-10.8 10.6-20.8 21.4-26.7 6.6-3.6 13.6-5.3 20.6-5.3 15.7 0 30.9 8.7 38.4 23.3l119.2 227 216.4-216.8 2.5-2.2c8.4-8.4 19.6-12.6 30.8-12.6s22.4 4.2 30.7 12.6l92.2 92.5c17.1 17.1 17.1 44.4 0 61.5l-218.9 218.6 226.7 119.2c10 5.6 17.4 13.6 21.1 25.2 7.8 23-5 47.5-27.3 54.9L169 782C164.8 783.4 160.4 784.1 155.9 784.1L155.9 784.1z"  horiz-adv-x="1024" />

    
    <glyph glyph-name="xianshi" unicode="&#59027;" d="M511.570109 889.121746C233.00084 889.121746 6.878254 662.99916 6.878254 384.429891s226.122586-505.551637 505.551637-505.551637 505.551637 226.122586 505.551637 505.551637S790.139379 889.121746 511.570109 889.121746zM511.570109 151.429051c-148.742233 0-302.643157 124.668346-367.126784 232.141058 64.483627 108.332494 218.384551 232.141058 367.126784 232.141058s302.643157-124.668346 367.126784-232.141058C814.213266 276.097397 660.312343 151.429051 511.570109 151.429051zM636.238455 464.389589c0-28.372796-22.354324-49.867338-48.147775-49.867338-25.793451 0-48.147775 22.354324-48.147775 49.867338 0 28.372796 22.354324 49.867338 48.147775 49.867338 4.298908 0 6.018472-1.719563 10.31738-1.719563-24.073887 18.055416-54.166247 28.372796-85.97817 28.372796-82.539043 0-148.742233-70.502099-148.742233-156.480269S429.890848 227.949622 511.570109 227.949622s148.742233 70.502099 148.742233 156.480269c0 34.391268-10.31738 64.483627-28.372796 90.277078C634.518892 470.40806 636.238455 466.109152 636.238455 464.389589L636.238455 464.389589z"  horiz-adv-x="1024" />

    
    <glyph glyph-name="yincang" unicode="&#59028;" d="M511.570109 879.664148C238.15953 879.664148 16.335852 657.84047 16.335852 384.429891c0-273.410579 222.683459-496.094039 496.094039-496.094039 273.410579 0 496.094039 222.683459 496.094039 496.094039C1008.523929 657.84047 784.980688 879.664148 511.570109 879.664148zM695.563392 212.473552l92.856423-109.192275-45.56843-37.830395-101.45424 120.369437c-42.129303-18.055416-85.97817-29.232578-129.827036-29.232578-145.303107 0-297.484467 122.089001-360.248531 227.842149 36.110831 61.0445 101.45424 126.387909 177.115029 171.956339L235.580185 665.578505l45.56843 37.830395 102.314022-120.369437c42.129303 18.055416 85.97817 29.232578 128.967254 29.232578 145.303107 0 297.484467-122.089001 360.248531-227.842149C835.707809 324.245172 771.224181 258.041982 695.563392 212.473552zM633.65911 462.670025c0-27.513014-21.494542-49.007557-47.287993-49.007557-25.793451 0-47.287993 21.494542-47.287993 49.007557s21.494542 49.007557 47.287993 49.007557c4.298908 0 6.018472-1.719563 9.457599-1.719563-23.214106 18.055416-53.306465 27.513014-84.258606 27.513014-26.653233 0-51.586902-7.738035-73.081444-20.634761l189.151973-223.543241c18.055416 25.793451 29.232578 57.605374 29.232578 91.996641 0 33.531486-9.457599 62.764064-27.513014 88.557515C631.939547 468.688497 633.65911 465.24937 633.65911 462.670025zM366.267003 384.429891c0-84.258606 65.343409-153.041142 145.303107-153.041142 26.653233 0 51.586902 7.738035 72.221662 20.634761l-189.151973 223.543241C376.584383 450.633081 366.267003 418.821159 366.267003 384.429891z"  horiz-adv-x="1024" />

    
    <glyph glyph-name="xialakuang" unicode="&#59102;" d="M824.102 558.758h-623.276l311.638-345.721 311.637 345.721zM824.102 558.758zM853.317 821.702h-681.701c-53.568 0-97.388-43.823-97.388-97.388v-681.701c0-53.561 43.823-97.388 97.388-97.388h681.701c53.561 0 97.388 43.828 97.388 97.388v681.701c0 53.568-43.828 97.388-97.388 97.388v0zM902.012 42.612c0-29.219-19.474-48.694-48.694-48.694h-681.701c-29.219 0-48.694 19.475-48.694 48.694v681.701c0 29.219 19.475 48.694 48.694 48.694h681.701c29.22 0 48.694-19.475 48.694-48.694v-681.701zM902.012 42.612z"  horiz-adv-x="1024" />

    
    <glyph glyph-name="xinxi" unicode="&#58881;" d="M889.827161-127.611144 127.140679-127.611144c-70.213131 0-127.119189 56.938803-127.119189 127.183657l0 763.202229c0 70.275553 57.738006 133.225257 127.951137 133.225257l767.707846 0c70.213131 0 127.951137-57.704237 127.951137-127.951137l0-767.707846C1023.63161-69.903837 960.040293-127.611144 889.827161-127.611144zM959.656553 768.048863c0 35.124985-28.884864 63.97608-63.97608 63.97608L127.972627 832.024943c-35.090193 0-64.391543-34.098609-64.391543-69.2502l0-763.202229c0-35.121915 28.437679-63.590294 63.559595-63.590294l762.686483 0c35.090193 0 69.829392 29.235858 69.829392 64.358797L959.656553 768.048863zM767.729336 192.267211 255.923764 192.267211c-17.657148 0-31.987528 14.33038-31.987528 31.987528s14.33038 31.987528 31.987528 31.987528L767.729336 256.242268c17.657148 0 31.987528-14.33038 31.987528-31.987528S785.386484 192.267211 767.729336 192.267211zM767.729336 384.194428 255.923764 384.194428c-17.657148 0-31.987528 14.33038-31.987528 31.987528 0 17.657148 14.33038 31.987528 31.987528 31.987528L767.729336 448.169485c17.657148 0 31.987528-14.33038 31.987528-31.987528C799.716864 398.524808 785.386484 384.194428 767.729336 384.194428zM767.729336 576.121646 255.923764 576.121646c-17.657148 0-31.987528 14.33038-31.987528 31.987528s14.33038 31.987528 31.987528 31.987528L767.729336 640.096702c17.657148 0 31.987528-14.33038 31.987528-31.987528S785.386484 576.121646 767.729336 576.121646z"  horiz-adv-x="1024" />

    
    <glyph glyph-name="xiangqian" unicode="&#59078;" d="M614.484 636.677c10.534 10.165 27.317 9.954 37.498-0.56 10.182-10.447 9.973-27.2-0.56-37.366L430.16 383.75l221.26-215.003c10.533-10.237 10.742-26.992 0.561-37.437-10.182-10.444-26.964-10.725-37.498-0.562L373.706 364.749l-0.561 0.49c-10.184 10.515-9.973 27.27 0.56 37.434l240.78 234.004zM269.218-66.66c-12.918 6.869-17.764 22.992-10.813 35.822 6.954 12.9 23.032 17.735 35.884 10.794 33.001-17.805 68.32-31.685 105.468-41.006 36.02-9.046 73.799-13.882 112.77-13.882 126.888 0 241.762 51.312 324.904 134.314 83.14 83 134.539 197.691 134.539 324.294 0 126.675-51.4 241.364-134.54 324.365-83.14 83.001-198.015 134.316-324.902 134.316-126.815 0-241.693-51.315-324.833-134.316-83.14-83-134.54-197.689-134.54-324.365 0-55.66 9.9-109.008 28.088-158.22 18.888-51.386 46.625-98.283 81.243-138.944 9.48-11.075 8.146-27.76-3.019-37.224-11.096-9.394-27.807-8.061-37.217 3.013-38.9 45.639-69.868 97.934-90.863 154.927C11.094 262.26 0 321.778 0 383.676c0 141.328 57.37 269.265 150.127 361.87C242.887 838.15 371.037 895.426 512.527 895.426c141.56 0 269.71-57.275 362.47-149.88 92.76-92.605 150.128-220.542 150.128-361.87 0-141.256-57.368-269.192-150.127-361.8C782.238-70.727 654.087-128 512.528-128c-43.185 0-85.315 5.397-125.62 15.563a508.816 508.816 0 0 0-117.69 45.777z"  horiz-adv-x="1026" />

    
    <glyph glyph-name="xianghou" unicode="&#59079;" d="M651.391796 402.656154a26.399992 26.399992 0 0 0 0.576-37.407988l-0.576-0.512-240.767924-234.015927a26.495992 26.495992 0 1 0-36.927989 38.015988l221.279931 215.007933-221.279931 215.007933a26.399992 26.399992 0 0 0-0.576 37.343988 26.559992 26.559992 0 0 0 37.503989 0.576l240.767924-234.015927z m104.511968-469.311853A512.70384 512.70384 0 0 0 512.60784-127.99968c-141.567956 0-269.727916 57.247982-362.463887 149.887953S0 242.432204 0 383.68016c0 141.343956 57.375982 269.279916 150.111953 361.887887S371.007884 895.456 512.57584 895.456a511.35984 511.35984 0 0 0 362.399887-149.887953 509.823841 509.823841 0 0 0 150.111953-361.887887 509.215841 509.215841 0 0 0-122.239962-331.359896 26.431992 26.431992 0 0 0-40.255988 34.175989 457.983857 457.983857 0 0 1 109.343966 297.183907c0 126.68796-51.391984 241.375925-134.559958 324.383899a458.303857 458.303857 0 0 1-324.799898 134.303958c-126.91196 0-241.791924-51.327984-324.895899-134.303958S53.151983 510.336121 53.151983 383.68016c0-126.62396 51.391984-241.311925 134.527958-324.287899s198.015938-134.303958 324.895899-134.303958a457.055857 457.055857 0 0 1 218.207932 54.879983 26.527992 26.527992 0 0 0 25.119992-46.623985z"  horiz-adv-x="1026" />

    
    <glyph glyph-name="rili" unicode="&#58883;" d="M849.92 259.2a15.36 15.36 0 1 0-30.72 0v78.53056a15.36512 15.36512 0 0 0 30.72 0v-78.53056zM404.83328 546.80576a15.36 15.36 0 0 0-15.36-15.36H325.46816a15.36 15.36 0 0 0-15.36 15.36c0 0.29184 0.07168 0.55808 0.09216 0.84992H288.6144c0.01536-0.28672 0.08704-0.55808 0.08704-0.84992a15.36 15.36 0 0 0-15.36-15.36H209.92v-14.51008h580.2496v-429.15328c0-8.00256-2.66752-15.36-7.11168-21.32992H783.36c19.75808 0 35.84 16.08192 35.84 35.84V531.44576H441.10336a15.36 15.36 0 0 0-15.36 15.36c0 0.29184 0.07168 0.55808 0.08704 0.84992h-21.07904c0.01024-0.29184 0.08192-0.5632 0.08192-0.84992zM783.36 674.56H245.76a35.88096 35.88096 0 0 1-31.53408-18.82112 35.6352 35.6352 0 0 0 17.01888 4.30592h537.59488c19.75808 0 35.84-16.0768 35.84-35.84v-61.19424H819.2V638.72c0 19.7632-16.08192 35.84-35.84 35.84zM350.29504 756.48a15.36 15.36 0 0 1-15.36-15.36v-102.4a15.36 15.36 0 1 1 30.72 0v102.4a15.36 15.36 0 0 1-15.36 15.36zM678.83008 756.48a15.36 15.36 0 0 1-15.36-15.36v-102.4a15.36 15.36 0 1 1 30.72 0v102.4a15.36 15.36 0 0 1-15.36 15.36zM373.08928 364.8h-24.65792c1.18784 26.2144 9.88672 47.23712 26.09152 63.08352 16.19968 15.84128 35.97312 23.76704 59.32544 23.76704 22.63552 0 41.50784-7.4496 56.64256-22.33856 15.12448-14.89408 22.69696-33.05984 22.69696-54.5024 0-15.95904-4.23424-30.73024-12.69248-44.30848-8.45824-13.57824-21.25824-29.6704-38.41536-48.25088l-63.96928-68.97152h118.65088v-24.65792H342.35392l97.92512 105.7792c17.15712 18.58048 29.41952 33.23904 36.80768 43.96032 7.37792 10.72128 11.07456 22.74816 11.07456 36.096 0 14.29504-5.42208 26.68032-16.26112 37.16608-10.84416 10.48064-24.00256 15.72352-39.49056 15.72352-16.68096 0-30.32064-5.42208-40.91904-16.26112-10.60352-10.84416-16.73728-26.2656-18.40128-46.2848zM595.73248 445.21472h50.39104v-256.59392h-25.3696V420.1984h-40.38144l15.36 25.01632zM389.47328 563.01056h-64a15.36 15.36 0 0 1 0-30.72h64a15.36 15.36 0 1 1 0 30.72zM849.92 638.72c0 36.70016-29.85984 66.56-66.56 66.56H245.76c-36.70016 0-66.56-29.85984-66.56-66.56v-535.5776c0-36.7104 29.85984-66.56 66.56-66.56h537.6c36.70016 0 66.56 29.8496 66.56 66.56v107.83232a15.36512 15.36512 0 0 1-30.72 0v-107.83232c0-19.76832-16.08192-35.84-35.84-35.84H245.76c-19.75808 0-35.84 16.07168-35.84 35.84V532.29056h63.42144a15.36 15.36 0 1 1 0 30.72H209.92V638.72c0 19.7632 16.08192 35.84 35.84 35.84h537.6c19.75808 0 35.84-16.0768 35.84-35.84v-75.70944H441.10336a15.36 15.36 0 1 1 0-30.72H819.2v-143.21152h0.18944c-0.08192-0.64-0.18944-1.26464-0.18944-1.92512a15.36 15.36 0 1 1 30.72 0c0 0.66048-0.11776 1.28512-0.19968 1.92512H849.92V638.72z"  horiz-adv-x="1024" />

    
    <glyph glyph-name="wenzi" unicode="&#59234;" d="M870.4 38.4L556.8 774.4c-6.4 12.8-12.8 25.6-32 25.6s-32-6.4-38.4-25.6l-192-473.6-115.2-268.8c-6.4-19.2 0-44.8 19.2-51.2s44.8 6.4 51.2 25.6l102.4 243.2h345.6l102.4-243.2c6.4-19.2 32-25.6 51.2-19.2 19.2 6.4 25.6 32 19.2 51.2zM384 326.4l140.8 332.8 140.8-332.8H384z"  horiz-adv-x="1024" />

    
    <glyph glyph-name="xinjian" unicode="&#58910;" d="M997.910828 641.630573h-228.280255V869.910828h58.700637v-169.579618h169.579618zM965.299363-69.299363V661.197452L782.675159 837.299363H58.700637v-906.598726h906.598726z m58.700637 737.019108v-795.719745H0V896h808.764331l6.522293-6.522293 202.191083-195.66879 6.522293-13.044586v-13.044586zM756.585987 354.649682H541.350318v-215.235669h-58.700636V354.649682H267.414013v58.700636h215.235669V628.585987h58.700636v-215.235669h215.235669z"  horiz-adv-x="1024" />

    
    <glyph glyph-name="xiankuang" unicode="&#59346;" d="M962-66h-900v900h900v-900zM109.369-18.631h805.264v805.264h-805.264v-805.264z"  horiz-adv-x="1024" />

    
    <glyph glyph-name="shangchuan" unicode="&#58885;" d="M768.536866 493.397333c0 141.482667-114.688 256-256 256s-256-114.688-256-256c-105.984 0-192-86.016-192-192s86.016-192 192-192v-64C126.318199 45.226667 16.750199 142.506667 1.731533 271.701333c-15.018667 129.194667 69.12 249.173333 195.754666 278.869334 27.818667 152.064 160.426667 262.485333 314.88 262.485333s287.061333-110.421333 314.88-262.485333c126.122667-30.208 209.92-150.016 194.901334-278.869334-15.018667-128.853333-123.904-226.133333-253.781334-226.474666V109.226667c105.984 0 192 86.016 192 192s-85.674667 192.170667-191.829333 192.170666z m-512.170667-384h128v-64h-128v64z m384.170667 0h128v-64h-128v64zM539.160866 320.170667v-333.141334c-0.170667-17.578667-14.336-31.914667-32.085333-32.256-17.578667 0.170667-31.914667 14.506667-32.085334 32.256V320.170667l-36.181333-36.181334c-12.629333-12.288-32.597333-12.117333-45.056 0.170667-6.144 5.973333-9.557333 13.994667-9.557333 22.528s3.413333 16.554667 9.386666 22.528l90.965334 90.965333c5.973333 5.973333 14.165333 9.216 22.528 9.216 8.362667 0.170667 16.554667-3.072 22.357333-9.045333l90.965333-90.965333c12.288-12.629333 12.117333-32.597333-0.170666-45.056-5.973333-6.144-13.994667-9.557333-22.528-9.557334s-16.554667 3.413333-22.528 9.386667l-36.010667 36.010667z"  horiz-adv-x="1024" />

    
    <glyph glyph-name="xiegang" unicode="&#59004;" d="M1006.342128-109.940196c17.517372 17.517372 19.076067 44.166751 4.001236 59.273491L73.968035 885.67193C58.894799 900.783455 32.210321 899.191257 14.691354 881.691434-2.787729 864.193207-4.379927 837.526278 10.731598 822.414753l936.33704-936.354589c15.108335-15.074831 41.754523-13.517732 59.27349 3.99964z"  horiz-adv-x="1024" />

    
    <glyph glyph-name="weixuanzhong" unicode="&#58884;" d="M888.7768352 822.00996587c41.3737376 0 75.0243776-33.65064 75.02437653-75.02437654V-7.671380269999986c0-41.3737376-33.65064-75.0243776-75.02437653-75.0243776H134.1198656c-41.3737376 0-75.0243776 33.65064-75.0243776 75.0243776V746.4339391999999c0 41.3737376 33.65064 75.0243776 75.0243776 75.0243776h754.6569696v0.55164907z m0 50.20013546H134.1198656c-69.5078784 0-125.77616213-56.26828267-125.77616213-125.77616213V-7.671380269999986c0-69.5078784 56.26828267-125.77616213 125.77616213-125.77616213h754.6569696c69.5078784 0 125.77616213 56.26828267 125.77616107 125.77616213V746.4339391999999c0 69.5078784-56.26828267 125.77616213-125.77616107 125.77616213"  horiz-adv-x="1024" />

    
    <glyph glyph-name="shousuo" unicode="&#59222;" d="M14.450011 710.031976V789.575672h994.298003v-79.543696H14.450011z m0-377.831651V411.74402h994.298003v-79.543695H14.450011z m0-377.831652v79.547308h994.298003v-79.547308H14.450011z m0 0"  horiz-adv-x="1024" />

    
    <glyph glyph-name="zuihou" unicode="&#58968;" d="M512 896C229.495737 896 0.62363 666.878441 0.62363 384S229.495737-128 512-128s511.37637 229.121559 511.37637 512S794.379537 896 512 896z m-0.62363-986.706943C249.07771-90.582217 36.669428 122.32497 36.794153 384.62363c0.249452 262.173934 212.907186 474.706943 475.205847 474.582217 262.173934 0 474.706943-212.533009 474.706943-474.706943v-0.62363c-0.124726-262.29866-213.031912-474.831669-475.330573-474.582217zM577.980024 397.470402L372.306943 601.272594c-3.242875 3.118149-7.483557 4.864312-11.848965 4.864312-4.61486 0-8.855542-1.746163-11.973691-4.989038-6.485749-6.610475-6.485749-17.336906 0.124726-23.822655l193.824117-192.077954-193.075761-194.697198c-3.118149-3.242875-4.864312-7.483557-4.864312-11.973691 0-4.490134 1.746163-8.730816 4.989038-11.97369 3.242875-3.118149 7.483557-4.864312 11.848965-4.864312 4.61486 0 8.855542 1.746163 11.97369 4.989038L576.857491 372.151035l0.124726 0.249452c0.124726 0.124726 0.249452 0.374178 0.374178 0.62363 0.124726 0.124726 0.124726 0.249452 0.249452 0.374178l0.124725 0.124726 0.498904 0.498903c2.868697 3.118149 4.490134 7.109379 4.490134 11.350061 0.249452 4.61486-1.496711 8.980268-4.739586 12.098417zM662.045311 171.965895c-10.102801 0-18.334714 8.231912-18.334714 18.334714V577.699391c0 10.102801 8.231912 18.334714 18.334714 18.334714s18.334714-8.231912 18.334713-18.334714v-387.274056c0-10.102801-8.231912-18.45944-18.334713-18.45944z"  horiz-adv-x="1024" />

    
    <glyph glyph-name="sheyingtuxiang" unicode="&#58980;" d="M873.526132 831.32847h-726.531428c-46.252423 0-83.806935-37.554512-83.806935-83.806935v-717.01489c0-46.252423 37.554512-83.806935 83.806935-83.806935h726.531428c46.252423 0 83.806935 37.554512 83.806935 83.806935v717.01489c0 46.252423-37.554512 83.806935-83.806935 83.806935z m-726.531428-55.973618h726.531428c15.451584 0 27.935645-12.484061 27.935645-27.935645v-400.717898c-45.024483 36.940542-123.101029 86.774458-216.731488 86.774458-86.365144 0-171.502348-66.922754-253.774358-131.696612-63.034276-49.526931-128.319776-100.793445-174.060558-100.793445-64.262216 0-119.212551 47.173379-137.733986 65.183172v481.250325c-0.102328 15.451584 12.484061 27.935645 27.833317 27.935645z m726.531428-772.88618h-726.531428c-7.367643 0-14.530629 2.967523-19.749376 8.18627-5.218747 5.218747-8.18627 12.381733-8.186269 19.749375V193.720396c33.563705-23.740182 81.965024-48.605976 137.733986-48.605976 65.080843 0 134.868792 54.848006 208.647547 112.765864C540.344959 316.719097 617.705206 377.502148 684.730289 377.502148c120.133507 0 215.298891-105.705206 216.322174-106.72849l0.409314 0.409314v-240.778655c0-7.367643-2.967523-14.530629-8.18627-19.749375s-12.279404-8.18627-19.749375-8.18627zM338.962726 384.562806c82.578995 0 149.39942 66.922754 149.39942 149.39942 0 82.578995-66.922754 149.39942-149.39942 149.399421s-149.39942-66.922754-149.39942-149.399421c-0.102328-82.476666 66.820426-149.39942 149.39942-149.39942z m0.511642 240.573998c50.140901 0 90.765264-40.624363 90.765264-90.765264s-40.624363-90.765264-90.765264-90.765264S248.709104 484.230639 248.709104 534.37154 289.333467 625.136804 339.474368 625.136804z m3.274508-89.025682"  horiz-adv-x="1024" />

    
    <glyph glyph-name="chakan1" unicode="&#58887;" d="M728.66666709 742.3333335899999c249.99999961 0 466.6666667-145.8333334 566.66666689-358.33333359L1395.3333333 384C1287.0000002 646.50000029 1028.6666668 834 728.66666709 834 428.66666651 834 170.3333331 646.50000029 62 384l100.0000002 0C262.00000039 596.5000001999999 478.66666661 742.3333335899999 728.66666709 742.3333335899999L728.66666709 742.3333335899999zM728.66666709 742.3333335899999M728.66666709 25.666666409999948c-249.99999961 0-466.6666667 145.8333334-566.6666669 358.33333359L62 384c108.3333331-262.50000029 366.66666651-450 666.66666709-450 299.99999971 0 558.3333331 187.49999971 666.66666709 450l-100.0000002 0C1195.33333291 171.49999979999996 978.6666667 25.666666409999948 728.66666709 25.666666409999948L728.66666709 25.666666409999948zM728.66666709 25.666666409999948M728.66666709 384m-241.6666667 0a5.09765625 5.09765625 0 1 1 483.33333339 0 5.09765625 5.09765625 0 1 1-483.33333339 0Z"  horiz-adv-x="1518" />

    
    <glyph glyph-name="kuajingzhifuiconliebiao-copy-copy-copy" unicode="&#58880;" d="M256 616.704c-28.288 0-51.2-20.832-51.2-46.56 0-25.696 22.912-46.528 51.2-46.528s51.2 20.832 51.2 46.528C307.2 595.904 284.288 616.704 256 616.704L256 616.704zM256 244.35199999999998c-28.288 0-51.2-20.832-51.2-46.528 0-25.728 22.912-46.56 51.2-46.56s51.2 20.832 51.2 46.56C307.2 223.51999999999998 284.288 244.35199999999998 256 244.35199999999998L256 244.35199999999998zM256 430.56c-28.288 0-51.2-20.832-51.2-46.56s22.912-46.56 51.2-46.56S307.2 358.27200000000005 307.2 384 284.288 430.56 256 430.56L256 430.56zM768 244.35199999999998l-307.2 0c-28.288 0-51.2-20.832-51.2-46.528 0-25.728 22.912-46.56 51.2-46.56L768 151.264c28.288 0 51.2 20.832 51.2 46.56C819.2 223.51999999999998 796.288 244.35199999999998 768 244.35199999999998L768 244.35199999999998zM768 616.704l-307.2 0c-28.288 0-51.2-20.832-51.2-46.56 0-25.696 22.912-46.528 51.2-46.528L768 523.616c28.288 0 51.2 20.832 51.2 46.528C819.2 595.904 796.288 616.704 768 616.704L768 616.704zM921.6 896L102.4 896C45.824 896 0 854.336 0 802.912L0-34.879999999999995C0-86.33600000000001 45.824-128 102.4-128L921.6-128c56.576 0 102.4 41.664 102.4 93.12L1024 802.912C1024 854.336 978.176 896 921.6 896L921.6 896zM921.6 11.648000000000025c0-25.696-22.944-46.528-51.232-46.528L153.6-34.879999999999995c-28.288 0-51.232 20.832-51.232 46.528L102.368 756.352c0 25.696 22.944 46.56 51.232 46.56L870.4 802.912c28.288 0 51.232-20.864 51.232-46.56L921.632 11.648000000000025 921.6 11.648000000000025zM768 430.56l-307.2 0c-28.288 0-51.2-20.832-51.2-46.56s22.912-46.56 51.2-46.56L768 337.44000000000005c28.288 0 51.2 20.832 51.2 46.56S796.288 430.56 768 430.56L768 430.56zM768 430.56"  horiz-adv-x="1024" />

    
    <glyph glyph-name="huaxian" unicode="&#58900;" d="M773.9 422.9H250.7c-80.1 0-145.3 64.1-145.3 142.9s65.2 142.9 145.3 142.9h465.5c20.1-47.5 67.4-80.9 122.4-80.9 73.2 0 132.7 59.1 132.7 131.7S911.7 891.2 838.6 891.2c-55 0-102.3-33.4-122.4-80.8H250.7c-136.2 0-247-109.8-247-244.7S114.5 321 250.7 321h523.2c80.1 0 145.4-64.1 145.4-142.9S854 35.3 773.9 35.3H329.1c-13.6 58.4-66.2 102.2-129.1 102.2-73.2 0-132.7-59.1-132.7-131.7S126.9-126 200-126c46.3 0 87.1 23.8 110.8 59.6h463.1c136.3 0 247.1 109.8 247.1 244.7 0 134.8-110.8 244.6-247.1 244.6z m64.7 366.7c17.1 0 31-13.4 31-30s-13.9-30-31-30-31 13.5-31 30 13.9 30 31 30zM200-24.3c-17.1 0-31 13.5-31 30s13.9 30 31 30 31-13.5 31-30-13.9-30-31-30z"  horiz-adv-x="1024" />

    
    <glyph glyph-name="xuanzekuang" unicode="&#58971;" d="M797.160708 591.439363l-344.211902-364.645682L244.71885 432.834303c-9.000594 9.000594-22.623114 9.000594-31.745338 0-9.000594-9.000594-9.000594-22.623114 0-31.745338L437.136952 176.925526c9.000594-9.000594 22.623114-9.000594 31.745338 0l360.023756 382.64687c9.000594 9.000594 9.000594 22.623114 0 31.745338s-22.623114 9.122224-31.745338 0.121629zM905.897613 885.78311h-815.283526c-49.868155 0-90.614087-40.745932-90.614087-90.614088v-815.283525c0-49.868155 40.745932-90.614087 90.614087-90.614087h815.283526c49.868155 0 90.614087 40.745932 90.614087 90.614087V795.169022c0 49.868155-40.745932 90.614087-90.614087 90.614088z m45.246228-905.775983c0-24.934078-20.433781-45.246229-45.246228-45.246229h-815.283526c-24.934078 0-45.246229 20.433781-45.246229 45.246229V795.169022c0 24.934078 20.433781 45.246229 45.246229 45.246229h815.283526c24.934078 0 45.246229-20.433781 45.246228-45.246229v-815.161895z"  horiz-adv-x="1041" />

    
    <glyph glyph-name="tuxiang" unicode="&#58994;" d="M265.728 450.56c54.272 0 96.256 41.472 96.256 96.256s-41.472 96.256-96.256 96.256-96.256-41.472-96.256-96.256 41.984-96.256 96.256-96.256z m0 128c19.456 0 31.744-12.8 31.744-31.744 0-19.456-12.8-31.744-31.744-31.744s-31.744 12.8-31.744 31.744c-0.512 18.944 12.288 31.744 31.744 31.744zM877.568 845.312h-739.84c-54.272 0-96.256-41.472-96.256-96.256v-730.624c0-54.272 41.472-96.256 96.256-96.256h739.84c54.272 0 96.256 41.472 96.256 96.256V749.056c-0.512 54.784-41.984 96.256-96.256 96.256z m-772.096-826.368V749.056c0 18.944 12.8 31.744 31.744 31.744h739.84c19.456 0 31.744-12.8 31.744-31.744v-583.168l-205.312 225.792c-38.4 38.4-99.328 38.4-134.144 0l-348.672-404.992h-82.944c-19.456 0-32.256 12.8-32.256 32.256z m772.096-32.256h-567.296l304.128 360.448c12.8 12.8 31.744 12.8 45.056 0l250.368-270.848v-57.344c-0.512-19.456-13.312-32.256-32.256-32.256z"  horiz-adv-x="1024" />

    
    <glyph glyph-name="xiaoxitishi" unicode="&#58894;" d="M512 384m-450 0a450 450 0 1 1 900 0 450 450 0 1 1-900 0Z"  horiz-adv-x="1024" />

    
    <glyph glyph-name="huitu" unicode="&#58882;" d="M79.36-20.48H422.4v-51.2H79.36zM550.4-20.48h376.32v-51.2H550.4zM629.76 737.28L844.8 522.24 373.76 51.2 158.72 266.24l471.04 471.04z m0 0M716.8 821.76l215.04-215.04-64-64L652.8 757.76l64 64z m0 0M138.24 243.2l215.04-215.04L51.2-56.32l87.04 299.52z m0 0M798.72 824.32L931.84 691.2c23.04-23.04 20.48-58.88-2.56-81.92s-61.44-25.6-81.92-2.56L714.24 739.84c-23.04 20.48-23.04 58.88 2.56 81.92 23.04 23.04 58.88 25.6 81.92 2.56z m0 0"  horiz-adv-x="1024" />

    
    <glyph glyph-name="touxiangnvhai" unicode="&#58908;" d="M554.801622 170.943869c0.853982-0.087998 3.844921 1.528969 8.330829 4.248913a242.296031 242.296031 0 0 0-46.942037-4.906899c12.782738-0.074998 25.549476 0.119998 38.611208 0.657986z m-68.005605 0c7.726842-0.316993 15.349685-0.48699 22.954529-0.595987a242.488027 242.488027 0 0 0-26.253461 1.91596c1.678966-0.894982 2.815942-1.369972 3.298932-1.319973zM514.307453 895.53001C231.650249 895.53001 2.482949 666.477707 2.482949 383.703506c0-174.09943 86.961217-327.829277 219.795493-420.256381 25.799471 89.852157 90.844137 157.587768 179.388321 188.760129-22.892531 35.163279-31.106362 55.068871-30.073384 64.85267a242.209033 242.209033 0 0 0-51.556942 51.611941C69.009585 297.329277 283.80318 801.702934 514.544448 680.411421c52.365926 27.536435 103.631875 23.009528 148.786949-0.795983 18.614618 21.379562 41.999139 37.416233 47.796019 21.576557l17.239647-47.226031 16.57366-45.101075c0.608988-0.769984 1.207975-1.540968 1.807963-2.315953l48.446006-9.017815 49.353988-9.092814c25.453478-4.756902-16.239667-62.848711-43.969098-78.577388 41.666146-110.227739 26.679453-229.825287-92.238109-241.513047a242.213033 242.213033 0 0 0-42.577126-44.518087c9.371808-4.714903 4.714903-25.287481-28.453417-75.448453 83.297292-32.65233 144.33804-98.49598 169.184531-184.82121 132.741278 92.440104 219.632496 246.119953 219.632495 420.148384C1026.123956 666.478707 796.956656 895.52901 514.307453 895.52901zM483.497085 172.264842a242.33403 242.33403 0 0 1 26.253461-1.91696c2.149956-0.028999 4.298912-0.053999 6.443868-0.065999a242.005037 242.005037 0 0 1 46.942037 4.905899c23.042527 13.979713 85.700242 57.163828 102.627896 48.638003a242.084035 242.084035 0 0 1 42.577126 44.518087 189.518113 189.518113 0 0 0-16.927652-0.936981c34.829286 50.531964 52.418925 112.752688 42.031138 194.104019l-216.53456-1.061978h-2.594946v0.013l-215.829574 1.049978c-10.392787-81.348332 7.200852-143.573056 42.031138-194.106019a202.83884 202.83884 0 0 0-20.47658 1.266974 242.500027 242.500027 0 0 1 51.557942-51.611941c3.164935 29.977385 92.814097-34.63329 111.898706-44.797082zM637.30693 148.376332c-0.232995-0.353993-0.440991-0.686986-0.682986-1.044978l-115.827624 0.115997-115.942623-0.115997c-1.112977 1.669966-2.140956 3.264933-3.190934 4.8769-88.545184-31.172361-153.58885-98.907972-179.388321-188.760129 82.825301-57.634818 183.470237-91.448125 292.029011-91.448125 108.624772 0 209.332707 33.859306 292.184008 91.556122C781.64397 49.877352 720.602222 115.726002 637.30693 148.376332zM520.79732 147.447351l115.826624-0.115997c0.241995 0.357993 0.449991 0.690986 0.682986 1.044978 33.16832 50.161971 37.824224 70.734549 28.452417 75.448453-16.922653 8.526825-79.580368-34.654289-102.626896-48.637003-4.485908-2.714944-7.476847-4.335911-8.329829-4.247913a818.528214 818.528214 0 0 0-45.056076-0.591987 823.681108 823.681108 0 0 0-22.954529 0.595987c-0.47999-0.049999-1.619967 0.428991-3.299932 1.319973-19.084609 10.159792-108.73277 74.774467-111.902705 44.797082-1.032979-9.787799 7.180853-29.689391 30.073383-64.85267 1.044979-1.611967 2.077957-3.206934 3.189934-4.8769l115.944623 0.115997zM663.086402 679.336443l0.239995 0.269995c-45.154074 23.809512-96.416023 28.337419-148.785949 0.795983 52.082932 27.387438 103.310881 22.779533 148.544954-1.065978z m83.491287-72.762508l0.162997-0.029999a201.822861 201.822861 0 0 1-1.807963 2.316953l0.132997-0.362993 1.511969-1.923961z m-48.766-338.993047zM298.476879 461.51091l215.830574-1.049978V680.528419l0.236995-0.115998C283.80418 801.701934 69.005585 297.329277 320.033437 268.672865a202.763842 202.763842 0 0 1 20.47658-1.265974c-34.829286 50.531964-52.423925 112.752688-42.032138 194.104019zM514.307453 460.461932v-0.013h2.594946l216.53456 1.061978c10.387787-81.347332-7.201852-143.572056-42.032138-194.104019a189.518113 189.518113 0 0 1 16.927653 0.936981c118.917561 11.68776 133.900254 131.284308 92.239108 241.513047-9.437806-5.35589-17.264646-5.818881-20.259584 2.42395L762.955353 559.506901l-17.239646 47.225031-49.469985 9.209811-49.470986 9.209812c-17.402643 3.264933-3.239934 31.626351 16.310666 54.184888-45.234072 23.841511-96.462022 28.453416-148.544954 1.069978l-0.236995 0.116998v-220.061487z m230.762267 148.036964l0.645987-1.762964 0.861982-0.161997-1.507969 1.923961zM745.715707 606.731932l17.239646-47.225031 17.356645-47.226032c2.999938-8.242831 10.825778-7.77984 20.259584-2.42395 27.724431 15.727677 69.422576 73.820486 43.969098 78.577388l-49.353988 9.092814-48.446006 9.017815-0.162997 0.028999-0.861982 0.157997zM646.774736 625.150555l49.470986-9.209812 49.469985-9.208811-0.645987 1.761964-0.132997 0.362993-16.57366 45.101075-17.239647 47.225031c-5.797881 15.840675-29.181402-0.194996-47.796019-21.575557l-0.241995-0.269995c-19.551599-22.559537-33.709309-50.920956-16.310666-54.186888z"  horiz-adv-x="1026" />

    
    <glyph glyph-name="shanchu" unicode="&#58889;" d="M607.898 127.957c-17.718 0-31.995 14.277-31.995 31.995V512.065c0 17.717 14.277 31.994 31.995 31.994s31.994-14.277 31.994-31.994v-351.941c0-17.718-14.277-32.167-31.994-32.167zM415.93 127.957c-17.717 0-31.995 14.277-31.995 31.995V512.065c0 17.717 14.278 31.994 31.995 31.994 17.718 0 31.995-14.277 31.995-31.994v-351.941c0-17.718-14.277-32.167-31.995-32.167zM928.016 672.038H768.043v63.989c0 52.98-42.66 95.984-95.296 95.984H351.941c-52.98 0-95.984-43.004-95.984-95.984v-63.99H95.984c-17.718 0-31.995-14.277-31.995-31.994s14.277-31.995 31.995-31.995h832.032c17.718 0 31.995 14.278 31.995 31.995s-14.277 31.995-31.995 31.995z m-608.07 63.989c0 17.545 14.45 31.995 31.995 31.995h320.806c17.546 0 31.307-14.106 31.307-31.995v-63.99H319.946v63.99zM736.048-64.01H288.124c-52.98 0-95.984 43.003-95.984 95.983V512.41c0 17.717 14.277 31.994 31.994 31.994s31.995-14.277 31.995-31.994v-480.436c0-17.717 14.45-31.995 31.995-31.995H736.22c17.718 0 31.995 14.278 31.995 31.995V511.204c0 17.718 14.277 31.995 31.995 31.995s31.994-14.277 31.994-31.995v-479.23c-0.172-52.81-43.175-95.985-96.156-95.985z"  horiz-adv-x="1024" />

    
    <glyph glyph-name="jiantou1" unicode="&#58888;" d="M750.8 464.54c6.4-8.1 6.5-14.3-3.3-24 0 0-194.3-200.1-201.9-207.7-5.8-5.8-10.2-9.7-16.9-9.7-7.5 0-12.8 3.9-18.1 9.7L307.5 441.04c-7.7 7.90000001-12.1 13.8-3.7 23.2 9.8 10.69999999 13.9 7 26-3.9l198.6-205.3L723 458.83999999C732.4 468.84 739.6 476.44 750.8 464.54z"  horiz-adv-x="1099" />

    
    <glyph glyph-name="shanchu1" unicode="&#59003;" d="M523.906977-128C235.75814-128 0 100.613953 0 384S235.75814 896 523.906977 896s523.906977-228.613953 523.906976-512S812.055814-128 523.906977-128z m0 952.55814C273.860465 824.55814 71.44186 626.902326 71.44186 384S273.860465-56.55814 523.906977-56.55814s452.465116 197.655814 452.465116 440.55814S773.953488 824.55814 523.906977 824.55814zM352.446512 407.813953h366.734883c19.051163 0 35.72093-16.669767 35.720931-35.72093s-16.669767-35.72093-35.720931-35.72093H352.446512c-19.051163 0-35.72093 16.669767-35.720931 35.72093s16.669767 35.72093 35.720931 35.72093z"  horiz-adv-x="1047" />

    
    <glyph glyph-name="baocun" unicode="&#58897;" d="M950 683.3L811.2 821.9c-6.3 6.4-14.9 10.1-24.5 10.1H98.2C79.2 832 64 816.8 64 797.7v-827.3c0-19 15.2-34.4 34.2-34.4h827.3c19.3 0 34.4 15.4 34.4 34.4v688c0.1 9.1-2.8 17.6-9.9 24.9z m-647.1 88.9h358.4v-238.9H302.9V772.2z m418.2-776.6H302.9V294.3H721v-298.7z m179.2 0H780.8V310c0 25-19.7 44.1-44 44.1H287.3c-24.2 0-44.1-19-44.1-44.1v-314.3H123.7V772.3h119.5v-254.6c0-25 20-44.1 44.1-44.1H677c24.5 0 44.1 19 44.1 44.1V772.2h55.3l124-123.6v-653zM392.5 174.8h238.9c16.5 0 29.9 13.4 29.9 29.9s-13.3 29.9-29.9 29.9H392.5c-16.5 0-29.9-13.4-29.9-29.9 0.1-16.5 13.4-29.9 29.9-29.9z m0-119.4h238.9c16.5 0 29.9 13.4 29.9 29.9s-13.3 29.9-29.9 29.9H392.5c-16.5 0-29.9-13.4-29.9-29.9 0.1-16.6 13.4-29.9 29.9-29.9z"  horiz-adv-x="1024" />

    
    <glyph glyph-name="sousuo" unicode="&#58913;" d="M951.4-10.3L799 152.6c61.8 74.3 95.7 166.9 95.7 264.5 0 228.8-186.3 415-415.4 415C250.3 832 64 645.9 64 417c0-228.8 186.3-415 415.4-415 60 0 117.9 12.6 172 37.2 16.1 7.3 23.2 26.2 15.8 42.3-7.3 16.1-26.4 23.2-42.3 15.8-45.8-20.8-94.7-31.4-145.5-31.4C285.6 65.9 128 223.4 128 417c0 193.6 157.6 351.1 351.4 351.1 193.8 0 351.5-157.5 351.5-351.1 0-91.1-34.8-177.5-97.9-243.2-12.2-12.7-11.8-32.9 0.9-45.1 1-0.9 2.2-1.3 3.3-2.1 0.9-1.3 1.3-2.8 2.4-3.9L904.9-54c6.3-6.7 14.8-10.1 23.3-10.1 7.8 0 15.7 2.8 21.8 8.6 12.7 12.1 13.4 32.3 1.4 45.2z m0 0"  horiz-adv-x="1024" />

    
    <glyph glyph-name="qishi" unicode="&#58907;" d="M512 896c282.624 0 512-229.376 512-512s-229.376-512-512-512S0 101.376 0 384 229.376 896 512 896z m0.512-986.624c262.656 0 475.136 212.992 475.136 475.136 0 262.144-212.992 474.624-475.648 474.624-262.656 0-475.136-212.48-475.136-474.624v-0.512c0-262.656 212.992-475.136 475.648-474.624zM445.952 397.312l205.824 203.776c3.072 3.072 7.68 5.12 11.776 5.12 4.608 0 8.704-1.536 11.776-5.12 6.656-6.656 6.656-17.408 0-24.064L481.28 385.024l193.536-194.56c3.072-3.072 5.12-7.68 5.12-11.776 0-4.608-1.536-8.704-5.12-11.776-3.072-3.072-7.68-5.12-11.776-5.12-4.608 0-8.704 1.536-11.776 5.12l-203.776 205.312s0 0.512-0.512 0.512v0.512l-0.512 0.512c-3.072 3.072-4.608 7.168-4.608 11.264-1.024 5.12 1.024 9.216 4.096 12.288z m-83.968-225.28c10.24 0 18.432 8.192 18.432 18.432V577.536c0 10.24-8.192 18.432-18.432 18.432s-18.432-8.192-18.432-18.432v-387.072c0-10.24 8.192-18.432 18.432-18.432z"  horiz-adv-x="1024" />

    
    <glyph glyph-name="qiguan" unicode="&#58909;" d="M940.8 810.666667v-853.333334h-853.333333V810.666667h853.333333m85.333333 85.333333H2.133333v-1024h1024V896zM514.133333 723.2c-46.933333 0-85.333333-38.4-85.333333-85.333333s38.4-85.333333 85.333333-85.333334 85.333333 38.4 85.333334 85.333334-38.4 85.333333-85.333334 85.333333zM856.533333 560H172.8v-87.466667h683.733333v87.466667zM421.333333 448H597.333333v-144H421.333333zM554.666667 405.333333v-58.666666h-90.666667V405.333333H554.666667m85.333333 85.333334H378.666667v-229.333334H640V490.666667zM378.666667 268.8h82.133333v-224h-82.133333zM460.8 268.8h-82.133333v-224h82.133333v224zM558.933333 261.333333h82.133334v-224h-82.133334zM640 261.333333h-81.066667v-224H640v224z"  horiz-adv-x="1026" />

    


  </font>
</defs>
</svg>
